<?xml version="1.0" standalone="no"?><!DOCTYPE svg PUBLIC "-//W3C//DTD SVG 1.1//EN" "http://www.w3.org/Graphics/SVG/1.1/DTD/svg11.dtd"><svg t="1734260104384" class="icon" viewBox="0 0 1024 1024" version="1.1" xmlns="http://www.w3.org/2000/svg" p-id="4532" xmlns:xlink="http://www.w3.org/1999/xlink" width="200" height="200"><path d="M873.7 688.2c-0.6-2.8-1.9-5.5-4-7.7l-124-132.7c40.3-18.6 50-38 50-52.3 0-4.8-1.1-9.6-3.3-14.1-0.6-2.7-1.9-5.2-3.9-7.3l-132-141.2c38-13 57.2-29.3 57.2-48.7 0-4-0.9-7.8-2.6-11.5-0.7-2.5-1.9-4.8-3.7-6.7L515.6 60.6c-3-3.2-7.2-5.1-11.7-5.1-4.4 0-8.6 1.8-11.7 5L298 266.8c-2.6 2.8-4.1 6.3-4.3 9.9-0.7 2.4-1 4.9-1 7.4 0 19.2 19.6 35.4 58.4 48.4l-134.6 143c-2.8 2.9-4.3 6.7-4.3 10.6-0.9 3.1-1.4 6.2-1.4 9.4 0 14.7 10 28.4 29.8 40.7 6.2 3.9 13.3 7.6 21.3 11.2l-127 134.8c-2.9 3.1-4.4 7.2-4.3 11.3-1.2 3.7-1.8 7.6-1.8 11.4 0 39.8 64.6 67 118.8 82.7 52.4 15.2 114.2 25.6 179.3 30.4v137.9c0 8.8 7.2 16 16 16h120.8c8.8 0 16-7.2 16-16V818.6c67.6-4.4 131.2-15.1 184-31 52-15.7 114.1-42.8 114.1-82.7-0.1-5.7-1.5-11.3-4.1-16.7z m-73.3 51.9c-2.8-2.5-6.4-4.1-10.4-4.2-99.2-2-186.5-13.7-259.4-34.7-20.9-6-40.6-12.8-59.1-20.3l-1.2-0.6c-0.9-0.4-1.7-0.7-2.6-0.9-31.1-13-58.7-28-82.3-45.1-34.4-24.8-54.3-49.5-65.4-67.2 54.5 14.1 120.1 21.7 186.8 21.7 72.6 0 143.1-9.2 198.4-25.9 2.9-0.9 5.7-1.8 8.4-2.6l129.1 138.2c0.4 0.7 0.8 1.5 1.3 2.1 0.8 1.2 1.8 2.9 1.8 4.4-0.1 6.7-13.1 20.4-45.4 35.1zM579 786.6c-23.3 1.6-47.1 2.4-71.2 2.4-26.8 0-53.7-1-80.2-3-62.3-4.7-122.1-14.7-171.1-29-78.2-22.8-95.8-45.8-95.8-52 0-1 0.4-2.1 1.2-3.5 0.5-0.8 0.9-1.7 1.2-2.5l121.6-129.1c8.7 17 25.4 42.6 56.1 69.8l-17.1 19.2c-5.9 6.6-5.3 16.7 1.3 22.6 3 2.7 6.8 4 10.6 4 4.4 0 8.8-1.8 12-5.4l18.2-20.5c22.4 16.2 47.8 30.8 76.2 43.5l-10.8 23.2c-3.7 8-0.3 17.5 7.7 21.3 2.2 1 4.5 1.5 6.8 1.5 6 0 11.8-3.4 14.5-9.2l11.4-24.5c15 5.7 30.7 11 47.1 15.8 13.8 4.1 28.2 7.8 42.9 11.2l-9.6 21.3c-1.7 3.7-1.8 7.7-0.7 11.3 1.3 4.2 4.3 7.9 8.7 9.9 2.1 1 4.4 1.4 6.6 1.4 3.8 0 7.5-1.4 10.4-3.8 1.7-1.5 3.2-3.4 4.2-5.6l12.5-27.8c40.4 7.7 84.1 13.1 130.6 16.1-43.6 10.6-93.2 17.9-145.3 21.4z m-31.4 153.3h-88.8v-120c16.2 0.7 32.6 1.1 49 1.1 13.3 0 26.6-0.2 39.8-0.7v119.6zM242.7 495.6c0-0.1 0.1-0.4 0.4-0.9 0.4-0.6 0.7-1.2 0.9-1.8l142-150.8c18.8 4.2 39.1 7.4 60.2 9.4 6.7 0.7 13.5 1.2 20.4 1.7 7 0.4 14 0.8 21.1 1 6 0.2 11.9 0.3 17.9 0.3 5.1 0 10.3-0.1 15.4-0.2 7.1-0.2 14.1-0.5 21.1-0.9 6.9-0.4 13.7-0.9 20.4-1.6 18.8-1.8 36.9-4.5 53.7-8.1 8.4 6.3 14.6 13.7 13.8 21.6-0.6 5.8-4.9 16.7-24.5 32.6-3.7 3-8 6.2-12.9 9.6-4.1 2.8-8.6 5.8-13.6 8.9-0.1 0.1-0.2 0.1-0.3 0.2-28.9 17.7-68.8 36.6-118.7 55.9-45.5 17.7-91.1 32.6-124 42.7-12.2 3.7-22.6 6.8-30.6 9.2-3.3 0.9-6.1 1.8-8.6 2.5-4.2-1.4-8.1-2.9-11.7-4.3-32.9-12.9-41.9-24.1-42.4-27z m426.1-77.5l-15-19.5c-0.8-1-1.7-1.9-2.6-2.7 3.2-4.7 5.6-9.3 7.4-14l103.3 110.6c0.3 0.6 0.6 1.1 1 1.6 0.5 0.7 0.7 1.2 0.7 1.4-0.2 2.8-8.5 14.2-41.2 27.4-4.9 2-10.3 4-16.3 6-3.4 1.1-7 2.3-10.8 3.4-2.1 0.6-4.1 1.2-6.2 1.8-51.4 14.6-115.8 22.6-182.4 22.6-52.7 0-104.8-5-150.5-14.2 19.6-6.1 42.5-13.6 66.9-22.2l9.8 23.4c2.6 6.1 8.5 9.8 14.8 9.8 2.1 0 4.2-0.4 6.2-1.3 8.1-3.4 12-12.8 8.5-21l-9.2-21.8c6.1-2.3 12.2-4.6 18.3-7 22.3-8.6 42.6-17.2 61.1-25.7l13 28.3c2.7 5.9 8.5 9.3 14.6 9.3 2.2 0 4.5-0.5 6.7-1.5 8-3.7 11.6-13.2 7.9-21.2l-13.3-28.9c12.6-6.4 23.9-12.7 34.1-19 2-1.2 3.9-2.5 5.8-3.7 4.8-3 9.2-6.1 13.4-9.1 4.6-3.3 8.8-6.6 12.7-9.8 0.7-0.6 1.4-1.1 2-1.7l13.9 18.1c3.2 4.1 7.9 6.2 12.7 6.2 3.4 0 6.8-1.1 9.7-3.3 7.1-5.2 8.4-15.2 3-22.3zM442.3 167.8c3.5-3.4 5.1-8.1 4.7-12.6L503.8 95l177 189.4c-3.7 4.2-16.9 13.6-48.6 22.5-0.6 0.2-1.1 0.3-1.7 0.5-2.7 0.7-5.4 1.4-8.2 2.1-3.2-1.8-6.5-3.6-10.1-5.4-2.9-1.4-5.8-2.9-8.6-4.3-15.5-7.8-30-15.5-43.4-23-28.1-15.8-51.6-30.8-70.2-45-4.5-3.4-8.6-6.7-12.5-10-0.6-0.5-1.2-1-1.7-1.5-3.8-3.3-7.1-6.4-10.2-9.3-17.8-17.3-22.6-28.9-23.9-34.7-1.2-5.4 0.3-7.9 0.6-8.5zM325.6 284.2l87.3-92.8c4.6 12.3 13.4 25.2 26.5 38.6l-15.8 17.8c-3 3.4-4.3 7.7-4 11.9 0.3 4 2.1 7.8 5.3 10.7 1.3 1.1 2.6 2 4.1 2.6 2.1 0.9 4.3 1.4 6.5 1.4 4.4 0 8.8-1.8 12-5.4l15.7-17.6c1.5 1.2 3.1 2.5 4.7 3.7 25.7 20 60.1 41.3 102.5 63.6-11.7 1.4-23.8 2.4-36 3-7 0.4-14.1 0.6-21.3 0.7-2.5 0-5 0.1-7.5 0.1-3.3 0-6.6 0-9.9-0.1-7.1-0.1-14.2-0.4-21.3-0.8-21.6-1.2-42.8-3.5-62.5-7-6.3-1.1-12.5-2.3-18.5-3.6-5-1.1-9.9-2.3-14.6-3.5-1.1-0.3-2.2-0.6-3.2-0.9-32.2-8.9-45.9-18.1-50-22.4z" fill="#C30D23" p-id="4533"></path></svg>